<?xml version="1.0" encoding="iso-8859-1"?>
<!-- Generator: Adobe Illustrator 19.0.0, SVG Export Plug-In . SVG Version: 6.00 Build 0)  -->
<svg version="1.1" id="Layer_1" xmlns="http://www.w3.org/2000/svg" xmlns:xlink="http://www.w3.org/1999/xlink" x="0px" y="0px"
	 viewBox="0 0 485 485" style="enable-background:new 0 0 485 485;" xml:space="preserve">
<g>
	<path d="M450.463,211.887h-94.811l23.411-115.613H257.5V0h-30v96.274H105.938l23.411,115.613H34.537L64.022,357.5h121.925V485h30
		V357.5h53.105V485h30V357.5h121.925L450.463,211.887z M257.5,241.887h63.215l-8.668,85.613H257.5V241.887z M227.5,327.5h-54.547
		l-8.668-85.613H227.5V327.5z M142.621,126.274h199.758l-17.335,85.613H159.956L142.621,126.274z M71.221,241.887h62.911
		l8.668,85.613H88.557L71.221,241.887z M396.443,327.5h-54.242l8.668-85.613h62.911L396.443,327.5z"/>
</g>
<g>
</g>
<g>
</g>
<g>
</g>
<g>
</g>
<g>
</g>
<g>
</g>
<g>
</g>
<g>
</g>
<g>
</g>
<g>
</g>
<g>
</g>
<g>
</g>
<g>
</g>
<g>
</g>
<g>
</g>
</svg>
